<mxfile host="app.diagrams.net" modified="2024-05-30T07:44:06.139Z" agent="Mozilla/5.0 (Windows NT 10.0; Win64; x64) AppleWebKit/537.36 (KHTML, like Gecko) Chrome/125.0.0.0 Safari/537.36 Edg/125.0.0.0" etag="GTHFA9QfIZI6lnWcBi8w" version="24.4.9" type="github">
  <diagram name="Use Case Diagram" id="VrfdbUfTS1v5BxtSnHWm">
    <mxGraphModel dx="1242" dy="665" grid="1" gridSize="10" guides="1" tooltips="1" connect="1" arrows="1" fold="1" page="1" pageScale="1" pageWidth="827" pageHeight="1169" math="0" shadow="0">
      <root>
        <mxCell id="0" />
        <mxCell id="1" parent="0" />
        <mxCell id="W2CVxHuPll6AkNbdR43H-1" value="Nový uživatel (neregistrovaný)" style="shape=actor" vertex="1" parent="1">
          <mxGeometry x="80" y="60" width="50" height="50" as="geometry" />
        </mxCell>
        <mxCell id="W2CVxHuPll6AkNbdR43H-2" value="Registrovaný uživatel" style="shape=actor" vertex="1" parent="1">
          <mxGeometry x="80" y="160" width="50" height="50" as="geometry" />
        </mxCell>
        <mxCell id="W2CVxHuPll6AkNbdR43H-3" value="Systém pro autorizaci uživatele" style="shape=actor" vertex="1" parent="1">
          <mxGeometry x="590" y="50" width="50" height="45" as="geometry" />
        </mxCell>
        <mxCell id="W2CVxHuPll6AkNbdR43H-4" value="Platební brána" style="shape=actor" vertex="1" parent="1">
          <mxGeometry x="600" y="190" width="50" height="50" as="geometry" />
        </mxCell>
        <mxCell id="W2CVxHuPll6AkNbdR43H-5" value="Paypal" style="shape=actor" vertex="1" parent="1">
          <mxGeometry x="600" y="280" width="50" height="50" as="geometry" />
        </mxCell>
        <mxCell id="W2CVxHuPll6AkNbdR43H-6" value="Zobrazení položek" style="ellipse" vertex="1" parent="1">
          <mxGeometry x="300" y="110" width="120" height="60" as="geometry" />
        </mxCell>
        <mxCell id="W2CVxHuPll6AkNbdR43H-7" value="Zobrazení navrhovaných/doporučovaných položek" style="ellipse" vertex="1" parent="1">
          <mxGeometry x="300" y="220" width="120" height="60" as="geometry" />
        </mxCell>
        <mxCell id="W2CVxHuPll6AkNbdR43H-8" value="Vytvoření objednávky" style="ellipse" vertex="1" parent="1">
          <mxGeometry x="300" y="330" width="120" height="60" as="geometry" />
        </mxCell>
        <mxCell id="W2CVxHuPll6AkNbdR43H-9" value="Zaplacení" style="ellipse" vertex="1" parent="1">
          <mxGeometry x="690" y="220" width="120" height="60" as="geometry" />
        </mxCell>
        <mxCell id="W2CVxHuPll6AkNbdR43H-10" value="Registrace" style="ellipse" vertex="1" parent="1">
          <mxGeometry x="294" y="5" width="120" height="60" as="geometry" />
        </mxCell>
        <mxCell id="W2CVxHuPll6AkNbdR43H-11" edge="1" parent="1" source="W2CVxHuPll6AkNbdR43H-1" target="W2CVxHuPll6AkNbdR43H-6">
          <mxGeometry relative="1" as="geometry" />
        </mxCell>
        <mxCell id="W2CVxHuPll6AkNbdR43H-12" edge="1" parent="1" source="W2CVxHuPll6AkNbdR43H-1" target="W2CVxHuPll6AkNbdR43H-10">
          <mxGeometry relative="1" as="geometry" />
        </mxCell>
        <mxCell id="W2CVxHuPll6AkNbdR43H-13" edge="1" parent="1" source="W2CVxHuPll6AkNbdR43H-2" target="W2CVxHuPll6AkNbdR43H-6">
          <mxGeometry relative="1" as="geometry">
            <Array as="points">
              <mxPoint x="180" y="170" />
            </Array>
          </mxGeometry>
        </mxCell>
        <mxCell id="W2CVxHuPll6AkNbdR43H-14" edge="1" parent="1" source="W2CVxHuPll6AkNbdR43H-2" target="W2CVxHuPll6AkNbdR43H-7">
          <mxGeometry relative="1" as="geometry" />
        </mxCell>
        <mxCell id="W2CVxHuPll6AkNbdR43H-15" style="exitX=0.5;exitY=1;exitDx=0;exitDy=0;" edge="1" parent="1" source="W2CVxHuPll6AkNbdR43H-7" target="W2CVxHuPll6AkNbdR43H-8">
          <mxGeometry relative="1" as="geometry" />
        </mxCell>
        <mxCell id="W2CVxHuPll6AkNbdR43H-17" edge="1" parent="1" source="W2CVxHuPll6AkNbdR43H-8" target="W2CVxHuPll6AkNbdR43H-4">
          <mxGeometry relative="1" as="geometry" />
        </mxCell>
        <mxCell id="W2CVxHuPll6AkNbdR43H-18" edge="1" parent="1" source="W2CVxHuPll6AkNbdR43H-8" target="W2CVxHuPll6AkNbdR43H-5">
          <mxGeometry relative="1" as="geometry" />
        </mxCell>
        <mxCell id="W2CVxHuPll6AkNbdR43H-19" edge="1" parent="1" source="W2CVxHuPll6AkNbdR43H-3" target="W2CVxHuPll6AkNbdR43H-10">
          <mxGeometry relative="1" as="geometry" />
        </mxCell>
        <mxCell id="W2CVxHuPll6AkNbdR43H-22" value="" style="endArrow=classic;html=1;rounded=0;exitX=1.036;exitY=1.036;exitDx=0;exitDy=0;exitPerimeter=0;" edge="1" parent="1" source="W2CVxHuPll6AkNbdR43H-4" target="W2CVxHuPll6AkNbdR43H-9">
          <mxGeometry width="50" height="50" relative="1" as="geometry">
            <mxPoint x="330" y="370" as="sourcePoint" />
            <mxPoint x="726.7999877929688" y="350" as="targetPoint" />
          </mxGeometry>
        </mxCell>
        <mxCell id="W2CVxHuPll6AkNbdR43H-23" value="" style="endArrow=classic;html=1;rounded=0;exitX=0.75;exitY=1;exitDx=0;exitDy=0;" edge="1" parent="1" source="W2CVxHuPll6AkNbdR43H-5" target="W2CVxHuPll6AkNbdR43H-9">
          <mxGeometry width="50" height="50" relative="1" as="geometry">
            <mxPoint x="620" y="350" as="sourcePoint" />
            <mxPoint x="570" y="320" as="targetPoint" />
          </mxGeometry>
        </mxCell>
        <mxCell id="W2CVxHuPll6AkNbdR43H-24" value="" style="endArrow=classic;html=1;rounded=0;exitX=0.338;exitY=1.05;exitDx=0;exitDy=0;exitPerimeter=0;" edge="1" parent="1" source="W2CVxHuPll6AkNbdR43H-6" target="W2CVxHuPll6AkNbdR43H-8">
          <mxGeometry width="50" height="50" relative="1" as="geometry">
            <mxPoint x="350" y="370" as="sourcePoint" />
            <mxPoint x="400" y="320" as="targetPoint" />
          </mxGeometry>
        </mxCell>
        <mxCell id="W2CVxHuPll6AkNbdR43H-25" value="" style="endArrow=classic;html=1;rounded=0;exitX=0.5;exitY=1;exitDx=0;exitDy=0;" edge="1" parent="1" source="W2CVxHuPll6AkNbdR43H-10" target="W2CVxHuPll6AkNbdR43H-7">
          <mxGeometry width="50" height="50" relative="1" as="geometry">
            <mxPoint x="350" y="370" as="sourcePoint" />
            <mxPoint x="400" y="320" as="targetPoint" />
          </mxGeometry>
        </mxCell>
      </root>
    </mxGraphModel>
  </diagram>
</mxfile>
